<?xml version="1.0" encoding="UTF-8"?>
<svg xmlns="http://www.w3.org/2000/svg" viewBox="0 0 700 276" role="img" aria-label="One Nginx worker running an event loop serving many concurrent connections" font-family="Verdana, Geneva, DejaVu Sans, sans-serif"><rect x="0" y="0" width="100%" height="100%" fill="#1c1a17"/><defs><marker id="a-ochre" markerWidth="9" markerHeight="9" refX="7.5" refY="4.5" orient="auto"><path d="M0,0 L9,4.5 L0,9 Z" fill="#d1972f"/></marker><marker id="a-verd" markerWidth="9" markerHeight="9" refX="7.5" refY="4.5" orient="auto"><path d="M0,0 L9,4.5 L0,9 Z" fill="#3f9c8b"/></marker><marker id="a-terra" markerWidth="9" markerHeight="9" refX="7.5" refY="4.5" orient="auto"><path d="M0,0 L9,4.5 L0,9 Z" fill="#c0603f"/></marker><marker id="a-sage" markerWidth="9" markerHeight="9" refX="7.5" refY="4.5" orient="auto"><path d="M0,0 L9,4.5 L0,9 Z" fill="#8aa06a"/></marker><marker id="a-plum" markerWidth="9" markerHeight="9" refX="7.5" refY="4.5" orient="auto"><path d="M0,0 L9,4.5 L0,9 Z" fill="#9a6f9c"/></marker><marker id="a-peri" markerWidth="9" markerHeight="9" refX="7.5" refY="4.5" orient="auto"><path d="M0,0 L9,4.5 L0,9 Z" fill="#7f8fc0"/></marker><marker id="a-parch" markerWidth="9" markerHeight="9" refX="7.5" refY="4.5" orient="auto"><path d="M0,0 L9,4.5 L0,9 Z" fill="#e7ddcb"/></marker><marker id="a-faint" markerWidth="9" markerHeight="9" refX="7.5" refY="4.5" orient="auto"><path d="M0,0 L9,4.5 L0,9 Z" fill="#9a8f7d"/></marker><marker id="a-rule" markerWidth="9" markerHeight="9" refX="7.5" refY="4.5" orient="auto"><path d="M0,0 L9,4.5 L0,9 Z" fill="#4a453d"/></marker></defs><rect x="250" y="120" width="200" height="80" rx="8" fill="#151310" stroke="#d1972f" stroke-width="1.4"/><text x="350" y="150" text-anchor="middle" fill="#d1972f" font-size="13" font-weight="bold">one worker</text><text x="350" y="172" text-anchor="middle" fill="#e7ddcb" font-size="11">a single event loop</text><text x="350" y="190" text-anchor="middle" fill="#9a8f7d" font-size="9.5">never blocks on a slow client</text><rect x="30" y="46" width="60" height="28" rx="8" fill="#262320" stroke="#3f9c8b" stroke-width="1.4"/><text x="60" y="65" text-anchor="middle" fill="#e7ddcb" font-size="10">conn</text><line x1="90" y1="60" x2="248" y2="160" stroke="#3f9c8b" stroke-width="1.6" fill="none" stroke-dasharray="3 3"/><rect x="30" y="106" width="60" height="28" rx="8" fill="#262320" stroke="#3f9c8b" stroke-width="1.4"/><text x="60" y="125" text-anchor="middle" fill="#e7ddcb" font-size="10">conn</text><line x1="90" y1="120" x2="248" y2="160" stroke="#3f9c8b" stroke-width="1.6" fill="none" stroke-dasharray="3 3"/><rect x="30" y="166" width="60" height="28" rx="8" fill="#262320" stroke="#3f9c8b" stroke-width="1.4"/><text x="60" y="185" text-anchor="middle" fill="#e7ddcb" font-size="10">conn</text><line x1="90" y1="180" x2="248" y2="160" stroke="#3f9c8b" stroke-width="1.6" fill="none" stroke-dasharray="3 3"/><rect x="30" y="226" width="60" height="28" rx="8" fill="#262320" stroke="#3f9c8b" stroke-width="1.4"/><text x="60" y="245" text-anchor="middle" fill="#e7ddcb" font-size="10">conn</text><line x1="90" y1="240" x2="248" y2="160" stroke="#3f9c8b" stroke-width="1.6" fill="none" stroke-dasharray="3 3"/><rect x="610" y="76" width="60" height="28" rx="8" fill="#262320" stroke="#3f9c8b" stroke-width="1.4"/><text x="640" y="95" text-anchor="middle" fill="#e7ddcb" font-size="10">conn</text><line x1="610" y1="90" x2="452" y2="160" stroke="#3f9c8b" stroke-width="1.6" fill="none" stroke-dasharray="3 3"/><rect x="610" y="136" width="60" height="28" rx="8" fill="#262320" stroke="#3f9c8b" stroke-width="1.4"/><text x="640" y="155" text-anchor="middle" fill="#e7ddcb" font-size="10">conn</text><line x1="610" y1="150" x2="452" y2="160" stroke="#3f9c8b" stroke-width="1.6" fill="none" stroke-dasharray="3 3"/><rect x="610" y="196" width="60" height="28" rx="8" fill="#262320" stroke="#3f9c8b" stroke-width="1.4"/><text x="640" y="215" text-anchor="middle" fill="#e7ddcb" font-size="10">conn</text><line x1="610" y1="210" x2="452" y2="160" stroke="#3f9c8b" stroke-width="1.6" fill="none" stroke-dasharray="3 3"/><text x="350" y="250" text-anchor="middle" fill="#9a8f7d" font-size="10.5">thousands of connections, a handful of processes, memory stays flat</text></svg>