<?xml version="1.0" encoding="UTF-8"?>
<svg xmlns="http://www.w3.org/2000/svg" viewBox="0 0 620 344" role="img" aria-label="Two branches of TCP connection states, an active close path and a passive close path" font-family="Verdana, Geneva, DejaVu Sans, sans-serif"><rect x="0" y="0" width="100%" height="100%" fill="#1c1a17"/><defs><marker id="a-ochre" markerWidth="9" markerHeight="9" refX="7.5" refY="4.5" orient="auto"><path d="M0,0 L9,4.5 L0,9 Z" fill="#d1972f"/></marker><marker id="a-verd" markerWidth="9" markerHeight="9" refX="7.5" refY="4.5" orient="auto"><path d="M0,0 L9,4.5 L0,9 Z" fill="#3f9c8b"/></marker><marker id="a-terra" markerWidth="9" markerHeight="9" refX="7.5" refY="4.5" orient="auto"><path d="M0,0 L9,4.5 L0,9 Z" fill="#c0603f"/></marker><marker id="a-sage" markerWidth="9" markerHeight="9" refX="7.5" refY="4.5" orient="auto"><path d="M0,0 L9,4.5 L0,9 Z" fill="#8aa06a"/></marker><marker id="a-plum" markerWidth="9" markerHeight="9" refX="7.5" refY="4.5" orient="auto"><path d="M0,0 L9,4.5 L0,9 Z" fill="#9a6f9c"/></marker><marker id="a-peri" markerWidth="9" markerHeight="9" refX="7.5" refY="4.5" orient="auto"><path d="M0,0 L9,4.5 L0,9 Z" fill="#7f8fc0"/></marker><marker id="a-parch" markerWidth="9" markerHeight="9" refX="7.5" refY="4.5" orient="auto"><path d="M0,0 L9,4.5 L0,9 Z" fill="#e7ddcb"/></marker><marker id="a-faint" markerWidth="9" markerHeight="9" refX="7.5" refY="4.5" orient="auto"><path d="M0,0 L9,4.5 L0,9 Z" fill="#9a8f7d"/></marker><marker id="a-rule" markerWidth="9" markerHeight="9" refX="7.5" refY="4.5" orient="auto"><path d="M0,0 L9,4.5 L0,9 Z" fill="#4a453d"/></marker></defs><rect x="260" y="24" width="150" height="34" rx="8" fill="#262320" stroke="#8aa06a" stroke-width="1.4"/><text x="335" y="46" text-anchor="middle" fill="#e7ddcb" font-size="12" font-weight="bold">ESTABLISHED</text><line x1="300" y1="58" x2="190" y2="90" stroke="#d1972f" stroke-width="1.6" fill="none" marker-end="url(#a-ochre)"/><line x1="370" y1="58" x2="480" y2="90" stroke="#d1972f" stroke-width="1.6" fill="none" marker-end="url(#a-ochre)"/><text x="190" y="80" text-anchor="middle" fill="#d1972f" font-size="11.5" font-weight="bold">closes first</text><rect x="120" y="96" width="140" height="32" rx="8" fill="#262320" stroke="#d1972f" stroke-width="1.4"/><text x="190" y="117" text-anchor="middle" fill="#e7ddcb" font-size="11.5" font-family="Consolas, DejaVu Sans Mono, monospace">FIN_WAIT_1</text><line x1="190" y1="128" x2="190" y2="144" stroke="#d1972f" stroke-width="1.6" fill="none" marker-end="url(#a-ochre)"/><rect x="120" y="144" width="140" height="32" rx="8" fill="#262320" stroke="#d1972f" stroke-width="1.4"/><text x="190" y="165" text-anchor="middle" fill="#e7ddcb" font-size="11.5" font-family="Consolas, DejaVu Sans Mono, monospace">FIN_WAIT_2</text><line x1="190" y1="176" x2="190" y2="192" stroke="#d1972f" stroke-width="1.6" fill="none" marker-end="url(#a-terra)"/><rect x="120" y="192" width="140" height="32" rx="8" fill="#262320" stroke="#c0603f" stroke-width="1.4"/><text x="190" y="213" text-anchor="middle" fill="#e7ddcb" font-size="11.5" font-family="Consolas, DejaVu Sans Mono, monospace">TIME_WAIT</text><line x1="190" y1="224" x2="190" y2="240" stroke="#c0603f" stroke-width="1.6" fill="none" marker-end="url(#a-faint)"/><rect x="120" y="240" width="140" height="32" rx="8" fill="#151310" stroke="#4a453d" stroke-width="1.4"/><text x="190" y="261" text-anchor="middle" fill="#9a8f7d" font-size="11.5" font-family="Consolas, DejaVu Sans Mono, monospace">CLOSED</text><text x="480" y="80" text-anchor="middle" fill="#d1972f" font-size="11.5" font-weight="bold">receives the close</text><rect x="410" y="96" width="140" height="32" rx="8" fill="#262320" stroke="#d1972f" stroke-width="1.4"/><text x="480" y="117" text-anchor="middle" fill="#e7ddcb" font-size="11.5" font-family="Consolas, DejaVu Sans Mono, monospace">CLOSE_WAIT</text><line x1="480" y1="128" x2="480" y2="144" stroke="#d1972f" stroke-width="1.6" fill="none" marker-end="url(#a-ochre)"/><rect x="410" y="144" width="140" height="32" rx="8" fill="#262320" stroke="#d1972f" stroke-width="1.4"/><text x="480" y="165" text-anchor="middle" fill="#e7ddcb" font-size="11.5" font-family="Consolas, DejaVu Sans Mono, monospace">LAST_ACK</text><line x1="480" y1="176" x2="480" y2="192" stroke="#d1972f" stroke-width="1.6" fill="none" marker-end="url(#a-faint)"/><rect x="410" y="192" width="140" height="32" rx="8" fill="#151310" stroke="#4a453d" stroke-width="1.4"/><text x="480" y="213" text-anchor="middle" fill="#9a8f7d" font-size="11.5" font-family="Consolas, DejaVu Sans Mono, monospace">CLOSED</text></svg>