<?xml version="1.0" encoding="UTF-8"?>
<svg xmlns="http://www.w3.org/2000/svg" viewBox="0 0 660 258" role="img" aria-label="Three columns comparing round robin, least connections, and IP hash load balancing" font-family="Verdana, Geneva, DejaVu Sans, sans-serif"><rect x="0" y="0" width="100%" height="100%" fill="#1c1a17"/><defs><marker id="a-ochre" markerWidth="9" markerHeight="9" refX="7.5" refY="4.5" orient="auto"><path d="M0,0 L9,4.5 L0,9 Z" fill="#d1972f"/></marker><marker id="a-verd" markerWidth="9" markerHeight="9" refX="7.5" refY="4.5" orient="auto"><path d="M0,0 L9,4.5 L0,9 Z" fill="#3f9c8b"/></marker><marker id="a-terra" markerWidth="9" markerHeight="9" refX="7.5" refY="4.5" orient="auto"><path d="M0,0 L9,4.5 L0,9 Z" fill="#c0603f"/></marker><marker id="a-sage" markerWidth="9" markerHeight="9" refX="7.5" refY="4.5" orient="auto"><path d="M0,0 L9,4.5 L0,9 Z" fill="#8aa06a"/></marker><marker id="a-plum" markerWidth="9" markerHeight="9" refX="7.5" refY="4.5" orient="auto"><path d="M0,0 L9,4.5 L0,9 Z" fill="#9a6f9c"/></marker><marker id="a-peri" markerWidth="9" markerHeight="9" refX="7.5" refY="4.5" orient="auto"><path d="M0,0 L9,4.5 L0,9 Z" fill="#7f8fc0"/></marker><marker id="a-parch" markerWidth="9" markerHeight="9" refX="7.5" refY="4.5" orient="auto"><path d="M0,0 L9,4.5 L0,9 Z" fill="#e7ddcb"/></marker><marker id="a-faint" markerWidth="9" markerHeight="9" refX="7.5" refY="4.5" orient="auto"><path d="M0,0 L9,4.5 L0,9 Z" fill="#9a8f7d"/></marker><marker id="a-rule" markerWidth="9" markerHeight="9" refX="7.5" refY="4.5" orient="auto"><path d="M0,0 L9,4.5 L0,9 Z" fill="#4a453d"/></marker></defs><text x="95" y="26" text-anchor="middle" fill="#d1972f" font-size="12.5" font-weight="bold">Round robin</text><rect x="60" y="40" width="70" height="30" rx="8" fill="#151310" stroke="#4a453d" stroke-width="1.4"/><text x="95" y="60" text-anchor="middle" fill="#9a8f7d" font-size="10.5">request</text><rect x="50" y="100" width="90" height="30" rx="8" fill="#262320" stroke="#d1972f" stroke-width="1.4"/><text x="95" y="120" text-anchor="middle" fill="#e7ddcb" font-size="10.5">server 1</text><text x="18" y="120" text-anchor="middle" fill="#d1972f" font-size="11" font-weight="bold">1·</text><rect x="50" y="144" width="90" height="30" rx="8" fill="#262320" stroke="#4a453d" stroke-width="1.4"/><text x="95" y="164" text-anchor="middle" fill="#e7ddcb" font-size="10.5">server 2</text><text x="18" y="164" text-anchor="middle" fill="#d1972f" font-size="11" font-weight="bold">2·</text><rect x="50" y="188" width="90" height="30" rx="8" fill="#262320" stroke="#4a453d" stroke-width="1.4"/><text x="95" y="208" text-anchor="middle" fill="#e7ddcb" font-size="10.5">server 3</text><text x="18" y="208" text-anchor="middle" fill="#d1972f" font-size="11" font-weight="bold">3·</text><line x1="95" y1="70" x2="95" y2="98" stroke="#d1972f" stroke-width="1.6" fill="none" marker-end="url(#a-ochre)"/><text x="95" y="244" text-anchor="middle" fill="#9a8f7d" font-size="10">rotates in order</text><text x="325" y="26" text-anchor="middle" fill="#3f9c8b" font-size="12.5" font-weight="bold">Least connections</text><rect x="290" y="40" width="70" height="30" rx="8" fill="#151310" stroke="#4a453d" stroke-width="1.4"/><text x="325" y="60" text-anchor="middle" fill="#9a8f7d" font-size="10.5">request</text><rect x="280" y="100" width="110" height="30" rx="8" fill="#262320" stroke="#4a453d" stroke-width="1.4"/><text x="322" y="120" text-anchor="middle" fill="#e7ddcb" font-size="10.5">server 1</text><text x="380" y="120" text-anchor="end" fill="#9a8f7d" font-size="9.5">3 conns</text><rect x="280" y="144" width="110" height="30" rx="8" fill="#262320" stroke="#3f9c8b" stroke-width="1.4"/><text x="322" y="164" text-anchor="middle" fill="#e7ddcb" font-size="10.5">server 2</text><text x="380" y="164" text-anchor="end" fill="#3f9c8b" font-size="9.5">1 conn</text><rect x="280" y="188" width="110" height="30" rx="8" fill="#262320" stroke="#4a453d" stroke-width="1.4"/><text x="322" y="208" text-anchor="middle" fill="#e7ddcb" font-size="10.5">server 3</text><text x="380" y="208" text-anchor="end" fill="#9a8f7d" font-size="9.5">4 conns</text><line x1="325" y1="70" x2="338" y2="98" stroke="#3f9c8b" stroke-width="1.6" fill="none" marker-end="url(#a-verd)"/><text x="330" y="244" text-anchor="middle" fill="#9a8f7d" font-size="10">follows real load</text><text x="565" y="26" text-anchor="middle" fill="#9a6f9c" font-size="12.5" font-weight="bold">IP hash</text><rect x="530" y="40" width="70" height="30" rx="8" fill="#151310" stroke="#4a453d" stroke-width="1.4"/><text x="565" y="60" text-anchor="middle" fill="#9a8f7d" font-size="10.5">request</text><rect x="520" y="100" width="90" height="30" rx="8" fill="#262320" stroke="#4a453d" stroke-width="1.4"/><text x="565" y="120" text-anchor="middle" fill="#e7ddcb" font-size="10.5">server 1</text><rect x="520" y="144" width="90" height="30" rx="8" fill="#262320" stroke="#9a6f9c" stroke-width="1.4"/><text x="565" y="164" text-anchor="middle" fill="#e7ddcb" font-size="10.5">server 2</text><rect x="520" y="188" width="90" height="30" rx="8" fill="#262320" stroke="#4a453d" stroke-width="1.4"/><text x="565" y="208" text-anchor="middle" fill="#e7ddcb" font-size="10.5">server 3</text><line x1="565" y1="70" x2="565" y2="142" stroke="#9a6f9c" stroke-width="1.6" fill="none" marker-end="url(#a-plum)"/><text x="565" y="244" text-anchor="middle" fill="#9a8f7d" font-size="10">same client, same server</text></svg>