<?xml version="1.0" encoding="UTF-8"?>
<svg xmlns="http://www.w3.org/2000/svg" viewBox="0 0 700 288" role="img" aria-label="Six special purpose IPv4 ranges and what each one means" font-family="Verdana, Geneva, DejaVu Sans, sans-serif"><rect x="0" y="0" width="100%" height="100%" fill="#1c1a17"/><defs><marker id="a-ochre" markerWidth="9" markerHeight="9" refX="7.5" refY="4.5" orient="auto"><path d="M0,0 L9,4.5 L0,9 Z" fill="#d1972f"/></marker><marker id="a-verd" markerWidth="9" markerHeight="9" refX="7.5" refY="4.5" orient="auto"><path d="M0,0 L9,4.5 L0,9 Z" fill="#3f9c8b"/></marker><marker id="a-terra" markerWidth="9" markerHeight="9" refX="7.5" refY="4.5" orient="auto"><path d="M0,0 L9,4.5 L0,9 Z" fill="#c0603f"/></marker><marker id="a-sage" markerWidth="9" markerHeight="9" refX="7.5" refY="4.5" orient="auto"><path d="M0,0 L9,4.5 L0,9 Z" fill="#8aa06a"/></marker><marker id="a-plum" markerWidth="9" markerHeight="9" refX="7.5" refY="4.5" orient="auto"><path d="M0,0 L9,4.5 L0,9 Z" fill="#9a6f9c"/></marker><marker id="a-peri" markerWidth="9" markerHeight="9" refX="7.5" refY="4.5" orient="auto"><path d="M0,0 L9,4.5 L0,9 Z" fill="#7f8fc0"/></marker><marker id="a-parch" markerWidth="9" markerHeight="9" refX="7.5" refY="4.5" orient="auto"><path d="M0,0 L9,4.5 L0,9 Z" fill="#e7ddcb"/></marker><marker id="a-faint" markerWidth="9" markerHeight="9" refX="7.5" refY="4.5" orient="auto"><path d="M0,0 L9,4.5 L0,9 Z" fill="#9a8f7d"/></marker><marker id="a-rule" markerWidth="9" markerHeight="9" refX="7.5" refY="4.5" orient="auto"><path d="M0,0 L9,4.5 L0,9 Z" fill="#4a453d"/></marker></defs><rect x="50" y="30" width="190" height="32" rx="8" fill="#262320" stroke="#d1972f" stroke-width="1.4"/><text x="62" y="51" text-anchor="start" fill="#d1972f" font-size="12.5" font-weight="bold" font-family="Consolas, DejaVu Sans Mono, monospace">127.0.0.0/8</text><text x="260" y="51" text-anchor="start" fill="#e7ddcb" font-size="11.5">loopback · this machine only</text><rect x="50" y="72" width="190" height="32" rx="8" fill="#262320" stroke="#c0603f" stroke-width="1.4"/><text x="62" y="93" text-anchor="start" fill="#c0603f" font-size="12.5" font-weight="bold" font-family="Consolas, DejaVu Sans Mono, monospace">169.254.0.0/16</text><text x="260" y="93" text-anchor="start" fill="#e7ddcb" font-size="11.5">link local · DHCP failed · AWS metadata</text><rect x="50" y="114" width="190" height="32" rx="8" fill="#262320" stroke="#7f8fc0" stroke-width="1.4"/><text x="62" y="135" text-anchor="start" fill="#7f8fc0" font-size="12.5" font-weight="bold" font-family="Consolas, DejaVu Sans Mono, monospace">0.0.0.0/0</text><text x="260" y="135" text-anchor="start" fill="#e7ddcb" font-size="11.5">any address · default route · bind all</text><rect x="50" y="156" width="190" height="32" rx="8" fill="#262320" stroke="#9a6f9c" stroke-width="1.4"/><text x="62" y="177" text-anchor="start" fill="#9a6f9c" font-size="12.5" font-weight="bold" font-family="Consolas, DejaVu Sans Mono, monospace">255.255.255.255</text><text x="260" y="177" text-anchor="start" fill="#e7ddcb" font-size="11.5">limited broadcast · this segment</text><rect x="50" y="198" width="190" height="32" rx="8" fill="#262320" stroke="#8aa06a" stroke-width="1.4"/><text x="62" y="219" text-anchor="start" fill="#8aa06a" font-size="12.5" font-weight="bold" font-family="Consolas, DejaVu Sans Mono, monospace">100.64.0.0/10</text><text x="260" y="219" text-anchor="start" fill="#e7ddcb" font-size="11.5">carrier grade NAT</text><rect x="50" y="240" width="190" height="32" rx="8" fill="#262320" stroke="#4a453d" stroke-width="1.4"/><text x="62" y="261" text-anchor="start" fill="#9a8f7d" font-size="12.5" font-weight="bold" font-family="Consolas, DejaVu Sans Mono, monospace">192.0.2.0/24</text><text x="260" y="261" text-anchor="start" fill="#e7ddcb" font-size="11.5">documentation and examples</text></svg>