<?xml version="1.0" encoding="UTF-8"?>
<svg xmlns="http://www.w3.org/2000/svg" viewBox="0 0 680 165" role="img" aria-label="A number line of the first octet divided into classful bands A through E" font-family="Verdana, Geneva, DejaVu Sans, sans-serif"><rect x="0" y="0" width="100%" height="100%" fill="#1c1a17"/><defs><marker id="a-ochre" markerWidth="9" markerHeight="9" refX="7.5" refY="4.5" orient="auto"><path d="M0,0 L9,4.5 L0,9 Z" fill="#d1972f"/></marker><marker id="a-verd" markerWidth="9" markerHeight="9" refX="7.5" refY="4.5" orient="auto"><path d="M0,0 L9,4.5 L0,9 Z" fill="#3f9c8b"/></marker><marker id="a-terra" markerWidth="9" markerHeight="9" refX="7.5" refY="4.5" orient="auto"><path d="M0,0 L9,4.5 L0,9 Z" fill="#c0603f"/></marker><marker id="a-sage" markerWidth="9" markerHeight="9" refX="7.5" refY="4.5" orient="auto"><path d="M0,0 L9,4.5 L0,9 Z" fill="#8aa06a"/></marker><marker id="a-plum" markerWidth="9" markerHeight="9" refX="7.5" refY="4.5" orient="auto"><path d="M0,0 L9,4.5 L0,9 Z" fill="#9a6f9c"/></marker><marker id="a-peri" markerWidth="9" markerHeight="9" refX="7.5" refY="4.5" orient="auto"><path d="M0,0 L9,4.5 L0,9 Z" fill="#7f8fc0"/></marker><marker id="a-parch" markerWidth="9" markerHeight="9" refX="7.5" refY="4.5" orient="auto"><path d="M0,0 L9,4.5 L0,9 Z" fill="#e7ddcb"/></marker><marker id="a-faint" markerWidth="9" markerHeight="9" refX="7.5" refY="4.5" orient="auto"><path d="M0,0 L9,4.5 L0,9 Z" fill="#9a8f7d"/></marker><marker id="a-rule" markerWidth="9" markerHeight="9" refX="7.5" refY="4.5" orient="auto"><path d="M0,0 L9,4.5 L0,9 Z" fill="#4a453d"/></marker></defs><text x="350" y="26" text-anchor="middle" fill="#9a8f7d" font-size="11">first octet decides the class</text><line x1="40" y1="100" x2="620.0" y2="100" stroke="#4a453d" stroke-width="1.2" fill="none"/><rect x="42.27450980392157" y="60" width="284.3137254901961" height="34" rx="8" fill="#262320" stroke="#d1972f" stroke-width="1.4"/><text x="184.4313725490196" y="82" text-anchor="middle" fill="#e7ddcb" font-size="13" font-weight="bold">A</text><text x="184.4313725490196" y="116" text-anchor="middle" fill="#9a8f7d" font-size="9">1</text><rect x="331.1372549019608" y="60" width="143.2941176470588" height="34" rx="8" fill="#262320" stroke="#3f9c8b" stroke-width="1.4"/><text x="402.78431372549016" y="82" text-anchor="middle" fill="#e7ddcb" font-size="13" font-weight="bold">B</text><text x="402.78431372549016" y="116" text-anchor="middle" fill="#9a8f7d" font-size="9">128</text><rect x="476.70588235294116" y="60" width="70.50980392156862" height="34" rx="8" fill="#262320" stroke="#7f8fc0" stroke-width="1.4"/><text x="511.96078431372547" y="82" text-anchor="middle" fill="#e7ddcb" font-size="13" font-weight="bold">C</text><text x="511.96078431372547" y="116" text-anchor="middle" fill="#9a8f7d" font-size="9">192</text><rect x="549.4901960784314" y="60" width="34.11764705882353" height="34" rx="8" fill="#262320" stroke="#9a6f9c" stroke-width="1.4"/><text x="566.5490196078431" y="82" text-anchor="middle" fill="#e7ddcb" font-size="13" font-weight="bold">D</text><text x="566.5490196078431" y="116" text-anchor="middle" fill="#9a8f7d" font-size="9">224</text><rect x="585.8823529411765" y="60" width="34.11764705882353" height="34" rx="8" fill="#262320" stroke="#c0603f" stroke-width="1.4"/><text x="602.9411764705882" y="82" text-anchor="middle" fill="#e7ddcb" font-size="13" font-weight="bold">E</text><text x="602.9411764705882" y="116" text-anchor="middle" fill="#9a8f7d" font-size="9">240</text><text x="620.0" y="116" text-anchor="middle" fill="#9a8f7d" font-size="9">255</text><text x="183.2941176470588" y="140" text-anchor="middle" fill="#d1972f" font-size="10">public + private hosts</text><text x="567.6862745098039" y="140" text-anchor="middle" fill="#9a6f9c" font-size="10">multicast · reserved</text></svg>