<?xml version="1.0" encoding="UTF-8"?>
<svg xmlns="http://www.w3.org/2000/svg" viewBox="0 0 720 270" role="img" aria-label="The reference application test suite as unit, integration, and end to end layers with a quarantine lane" font-family="Verdana, Geneva, DejaVu Sans, sans-serif"><rect x="0" y="0" width="100%" height="100%" fill="#1c1a17"/><defs><marker id="a-ochre" markerWidth="9" markerHeight="9" refX="7.5" refY="4.5" orient="auto"><path d="M0,0 L9,4.5 L0,9 Z" fill="#d1972f"/></marker><marker id="a-verd" markerWidth="9" markerHeight="9" refX="7.5" refY="4.5" orient="auto"><path d="M0,0 L9,4.5 L0,9 Z" fill="#3f9c8b"/></marker><marker id="a-terra" markerWidth="9" markerHeight="9" refX="7.5" refY="4.5" orient="auto"><path d="M0,0 L9,4.5 L0,9 Z" fill="#c0603f"/></marker><marker id="a-sage" markerWidth="9" markerHeight="9" refX="7.5" refY="4.5" orient="auto"><path d="M0,0 L9,4.5 L0,9 Z" fill="#8aa06a"/></marker><marker id="a-plum" markerWidth="9" markerHeight="9" refX="7.5" refY="4.5" orient="auto"><path d="M0,0 L9,4.5 L0,9 Z" fill="#9a6f9c"/></marker><marker id="a-peri" markerWidth="9" markerHeight="9" refX="7.5" refY="4.5" orient="auto"><path d="M0,0 L9,4.5 L0,9 Z" fill="#7f8fc0"/></marker><marker id="a-parch" markerWidth="9" markerHeight="9" refX="7.5" refY="4.5" orient="auto"><path d="M0,0 L9,4.5 L0,9 Z" fill="#e7ddcb"/></marker><marker id="a-faint" markerWidth="9" markerHeight="9" refX="7.5" refY="4.5" orient="auto"><path d="M0,0 L9,4.5 L0,9 Z" fill="#9a8f7d"/></marker><marker id="a-rule" markerWidth="9" markerHeight="9" refX="7.5" refY="4.5" orient="auto"><path d="M0,0 L9,4.5 L0,9 Z" fill="#4a453d"/></marker></defs><rect x="60" y="60" width="360" height="50" rx="8" fill="#262320" stroke="#d1972f" stroke-width="1.4"/><text x="240" y="84" text-anchor="middle" fill="#d1972f" font-size="12" font-weight="bold" font-family="Consolas, DejaVu Sans Mono, monospace">unit · test_pricing.py</text><text x="240" y="100" text-anchor="middle" fill="#9a8f7d" font-size="9">pure logic, milliseconds</text><rect x="100" y="130" width="280" height="50" rx="8" fill="#262320" stroke="#3f9c8b" stroke-width="1.4"/><text x="240" y="154" text-anchor="middle" fill="#3f9c8b" font-size="12" font-weight="bold" font-family="Consolas, DejaVu Sans Mono, monospace">integration · test_api.py</text><text x="240" y="170" text-anchor="middle" fill="#9a8f7d" font-size="9">the running app answers</text><rect x="140" y="200" width="200" height="50" rx="8" fill="#262320" stroke="#9a6f9c" stroke-width="1.4"/><text x="240" y="224" text-anchor="middle" fill="#9a6f9c" font-size="12" font-weight="bold">end to end</text><text x="240" y="240" text-anchor="middle" fill="#9a8f7d" font-size="9">a few, at the top</text><rect x="470" y="130" width="200" height="70" rx="10" fill="#151310" stroke="#c0603f" stroke-width="1.4"/><text x="570" y="156" text-anchor="middle" fill="#c0603f" font-size="12" font-weight="bold">quarantine lane</text><text x="570" y="178" text-anchor="middle" fill="#9a8f7d" font-size="9" font-family="Consolas, DejaVu Sans Mono, monospace">test_flaky, non blocking</text><line x1="380" y1="155" x2="468" y2="160" stroke="#c0603f" stroke-width="1.6" fill="none" stroke-dasharray="4 3" marker-end="url(#a-terra)"/></svg>